<svg xmlns="http://www.w3.org/2000/svg" xmlns:xlink="http://www.w3.org/1999/xlink" version="1.1" x="0px" y="0px" viewBox="0 0 100 125" enable-background="new 0 0 100 100" xml:space="preserve"><path fill="#e74c3c" d="M50,62.021c1.32,0,2.396-1.074,2.396-2.396V36.039c0-1.321-1.076-2.396-2.396-2.396c-1.321,0-2.396,1.074-2.396,2.396  v23.586C47.604,60.947,48.679,62.021,50,62.021z"/><path fill="#e74c3c" d="M50,66.913c-2.548,0-4.619,2.071-4.619,4.62c0,2.547,2.071,4.619,4.619,4.619s4.619-2.072,4.619-4.619  C54.619,68.984,52.548,66.913,50,66.913z"/><path d="M92.58,71.656L60.966,16.9C58.154,12.03,54.262,9.35,50,9.35c-4.261,0-8.155,2.68-10.966,7.55L7.419,71.656  c-2.81,4.869-3.186,9.582-1.056,13.273c2.131,3.688,6.401,5.721,12.023,5.721h63.227c5.621,0,9.893-2.031,12.023-5.721  C95.766,81.238,95.391,76.525,92.58,71.656z M89.486,82.534c-1.238,2.146-4.034,3.325-7.873,3.325H18.387  c-3.839,0-6.635-1.182-7.873-3.325c-1.239-2.146-0.864-5.157,1.056-8.481l31.614-54.757c1.918-3.323,4.338-5.155,6.816-5.155  c2.479,0,4.898,1.832,6.816,5.155L88.43,74.053C90.35,77.377,90.725,80.391,89.486,82.534z"/></svg>