<svg xmlns="http://www.w3.org/2000/svg" xmlns:xlink="http://www.w3.org/1999/xlink" version="1.1" x="0px" y="0px" viewBox="0 0 100 125" style="enable-background:new 0 0 100 100;" xml:space="preserve"><g><path fill="#4a4a4a" d="M22.7,77.3c0.8,0.8,1.8,1.2,2.8,1.2s2-0.4,2.8-1.2L50,55.7l21.7,21.7c0.8,0.8,1.8,1.2,2.8,1.2s2-0.4,2.8-1.2   c1.6-1.6,1.6-4.1,0-5.7L55.7,50l21.7-21.7c1.6-1.6,1.6-4.1,0-5.7c-1.6-1.6-4.1-1.6-5.7,0L50,44.3L28.3,22.7c-1.6-1.6-4.1-1.6-5.7,0   c-1.6,1.6-1.6,4.1,0,5.7L44.3,50L22.7,71.7C21.1,73.2,21.1,75.8,22.7,77.3z"/></g></svg>