<svg xmlns="http://www.w3.org/2000/svg" xmlns:xlink="http://www.w3.org/1999/xlink" version="1.1" x="0px" y="0px" viewBox="0 0 100 125" enable-background="new 0 0 100 100" xml:space="preserve"><g><path fill="#cccccc" d="M73.858,31.499L28.51,5.317c-0.027-0.016-0.058-0.021-0.085-0.035c-0.128-0.067-0.261-0.122-0.401-0.166   c-0.047-0.015-0.092-0.032-0.14-0.044C27.704,5.029,27.519,5,27.326,5c-0.193,0-0.378,0.029-0.557,0.073   c-0.048,0.012-0.093,0.029-0.14,0.044c-0.14,0.043-0.274,0.098-0.401,0.166c-0.028,0.015-0.058,0.02-0.086,0.035   c-0.018,0.011-0.031,0.027-0.049,0.038c-0.16,0.098-0.312,0.209-0.444,0.341c-0.003,0.003-0.005,0.006-0.008,0.009   c-0.127,0.128-0.233,0.274-0.328,0.429c-0.027,0.045-0.05,0.09-0.074,0.137c-0.065,0.123-0.118,0.252-0.161,0.387   c-0.016,0.049-0.033,0.097-0.046,0.147c-0.044,0.181-0.075,0.368-0.075,0.563v52.363v32.9c0,1.308,1.06,2.368,2.368,2.368   c1.308,0,2.368-1.06,2.368-2.368V61.099l44.164-25.498c0.733-0.423,1.184-1.205,1.184-2.051S74.591,31.922,73.858,31.499z"/></g></svg>