<?xml version="1.0" encoding="UTF-8"?>
<svg width="30px" height="36px" viewBox="0 0 30 36" version="1.1" xmlns="http://www.w3.org/2000/svg" xmlns:xlink="http://www.w3.org/1999/xlink">
    <!-- Generator: Sketch 48.1 (47250) - http://www.bohemiancoding.com/sketch -->
    <title>Group 5</title>
    <desc>Created with Sketch.</desc>
    <defs></defs>
    <g id="Score-(Analysing)" stroke="none" stroke-width="1" fill="none" fill-rule="evenodd" transform="translate(-649.000000, -384.000000)">
        <g id="Group-5" transform="translate(649.000000, 384.000000)" fill-rule="nonzero">
            <rect id="Rectangle-path" fill="#0057FF" x="4.58490566" y="4.41509434" width="20.7169811" height="5.09433962"></rect>
            <path d="M23.2641509,16.3018868 L5.94339623,16.3018868 C5.36603774,16.3018868 4.9245283,15.8603774 4.9245283,15.2830189 C4.9245283,14.7056604 5.36603774,14.2641509 5.94339623,14.2641509 L23.2641509,14.2641509 C23.8415094,14.2641509 24.2830189,14.7056604 24.2830189,15.2830189 C24.2830189,15.8603774 23.8415094,16.3018868 23.2641509,16.3018868 Z" id="Shape" fill="#0057FF"></path>
            <path d="M23.2641509,21.3962264 L5.94339623,21.3962264 C5.36603774,21.3962264 4.9245283,20.954717 4.9245283,20.3773585 C4.9245283,19.8 5.36603774,19.3584906 5.94339623,19.3584906 L23.2641509,19.3584906 C23.8415094,19.3584906 24.2830189,19.8 24.2830189,20.3773585 C24.2830189,20.954717 23.8415094,21.3962264 23.2641509,21.3962264 Z" id="Shape" fill="#0057FF"></path>
            <path d="M14.9433962,26.490566 L5.94339623,26.490566 C5.36603774,26.490566 4.9245283,26.0490566 4.9245283,25.4716981 C4.9245283,24.8943396 5.36603774,24.4528302 5.94339623,24.4528302 L14.9433962,24.4528302 C15.5207547,24.4528302 15.9622642,24.8943396 15.9622642,25.4716981 C15.9622642,26.0490566 15.5207547,26.490566 14.9433962,26.490566 Z" id="Shape" fill="#0057FF"></path>
            <path d="M25.3018868,36 L4.58490566,36 C2.13962264,36 0.169811321,34.0301887 0.169811321,31.5849057 L0.169811321,4.41509434 C0.169811321,1.96981132 2.13962264,0 4.58490566,0 L25.3018868,0 C27.7471698,0 29.7169811,1.96981132 29.7169811,4.41509434 L29.7169811,31.5849057 C29.7169811,34.0301887 27.7471698,36 25.3018868,36 Z M4.58490566,2.03773585 C3.26037736,2.03773585 2.20754717,3.09056604 2.20754717,4.41509434 L2.20754717,31.5849057 C2.20754717,32.909434 3.26037736,33.9622642 4.58490566,33.9622642 L25.3018868,33.9622642 C26.6264151,33.9622642 27.6792453,32.909434 27.6792453,31.5849057 L27.6792453,4.41509434 C27.6792453,3.09056604 26.6264151,2.03773585 25.3018868,2.03773585 L4.58490566,2.03773585 Z" id="Shape" fill="#4A4A4A"></path>
        </g>
    </g>
</svg>