<?xml version="1.0" encoding="UTF-8"?>
<svg width="44px" height="36px" viewBox="0 0 44 36" version="1.1" xmlns="http://www.w3.org/2000/svg" xmlns:xlink="http://www.w3.org/1999/xlink">
    <!-- Generator: Sketch 48.1 (47250) - http://www.bohemiancoding.com/sketch -->
    <title>Group 6</title>
    <desc>Created with Sketch.</desc>
    <defs></defs>
    <g id="Score-(Analysing)" stroke="none" stroke-width="1" fill="none" fill-rule="evenodd" transform="translate(-454.000000, -385.000000)">
        <g id="Group-6" transform="translate(454.000000, 385.000000)" fill-rule="nonzero">
            <path d="M35.5591837,34.8244898 L8.28599578,34.8244898 C4.53314567,34.8244898 1.48627727,31.8122449 1.48627727,28.1020408 L1.48627727,7.89795918 C1.48627727,4.1877551 4.53314567,1.1755102 8.28599578,1.1755102 L35.5220267,1.1755102 C39.2748768,1.1755102 42.3217452,4.1877551 42.3217452,7.89795918 L42.3217452,28.1020408 C42.3589022,31.8122449 39.3120338,34.8244898 35.5591837,34.8244898 Z" id="Shape" fill="#FFFFFF"></path>
            <path d="M35.5591837,34.8244898 L8.28599578,34.8244898 C4.53314567,34.8244898 1.48627727,31.8122449 1.48627727,28.1020408 L1.48627727,7.89795918 C1.48627727,4.1877551 4.53314567,1.1755102 8.28599578,1.1755102 L35.5220267,1.1755102 C39.2748768,1.1755102 42.3217452,4.1877551 42.3217452,7.89795918 L42.3217452,28.1020408 C42.3589022,31.8122449 39.3120338,34.8244898 35.5591837,34.8244898 Z" id="Shape" fill="#FFFFFF"></path>
            <path d="M35.5591837,34.8244898 L8.28599578,34.8244898 C4.53314567,34.8244898 1.48627727,31.8122449 1.48627727,28.1020408 L1.48627727,18.6612245 L11.3700211,25.3836735 L21.9225897,13.2612245 L31.8063336,20.8285714 L42.3589022,12.4530612 L42.3589022,28.1020408 C42.3589022,31.8122449 39.3120338,34.8244898 35.5591837,34.8244898 Z" id="Shape" fill="#0057FF"></path>
            <path d="M11.3700211,26.522449 C11.1470795,26.522449 10.9241379,26.4489796 10.7383533,26.3387755 L0.85460943,19.5795918 C0.334412386,19.2489796 0.22294159,18.5510204 0.557353976,18.0367347 C0.891766362,17.522449 1.59774806,17.4122449 2.11794511,17.7428571 L11.1842365,23.9142857 L21.1051372,12.5265306 C21.4767065,12.0857143 22.1455313,12.0122449 22.6285714,12.3795918 L31.8063336,19.4693878 L41.6900774,11.6081633 C42.1731175,11.2408163 42.8790992,11.3142857 43.2506685,11.7918367 C43.6222379,12.2693878 43.547924,12.9673469 43.0648839,13.3346939 L32.5123153,21.7102041 C32.103589,22.0408163 31.546235,22.0408163 31.1375088,21.7102041 L22.0712175,14.8040816 L12.2246305,26.1183673 C12.001689,26.3755102 11.6672766,26.522449 11.3700211,26.522449 Z" id="Shape" fill="#4A4A4A"></path>
            <ellipse id="Oval" fill="#FFFFFF" cx="11.3700211" cy="25.4204082" rx="3.41843772" ry="3.37959184"></ellipse>
            <ellipse id="Oval" fill="#FFFFFF" cx="31.8063336" cy="20.8653061" rx="3.41843772" ry="3.37959184"></ellipse>
            <ellipse id="Oval" fill="#FFFFFF" cx="21.9225897" cy="13.2979592" rx="3.41843772" ry="3.37959184"></ellipse>
            <path d="M11.3700211,29.8653061 C8.88050669,29.8653061 6.83687544,27.844898 6.83687544,25.3836735 C6.83687544,22.922449 8.88050669,20.9020408 11.3700211,20.9020408 C13.8595355,20.9020408 15.9031668,22.922449 15.9031668,25.3836735 C15.9031668,27.8816327 13.8595355,29.8653061 11.3700211,29.8653061 Z M11.3700211,23.1428571 C10.1066854,23.1428571 9.06629134,24.1714286 9.06629134,25.4204082 C9.06629134,26.6693878 10.1066854,27.6979592 11.3700211,27.6979592 C12.6333568,27.6979592 13.6737509,26.6693878 13.6737509,25.4204082 C13.6737509,24.1714286 12.6333568,23.1428571 11.3700211,23.1428571 Z" id="Shape" fill="#4A4A4A"></path>
            <path d="M31.8063336,25.3469388 C29.3168191,25.3469388 27.2731879,23.3265306 27.2731879,20.8653061 C27.2731879,18.4040816 29.3168191,16.3836735 31.8063336,16.3836735 C34.295848,16.3836735 36.3394792,18.4040816 36.3394792,20.8653061 C36.3394792,23.3265306 34.295848,25.3469388 31.8063336,25.3469388 Z M31.8063336,18.5877551 C30.5429979,18.5877551 29.5026038,19.6163265 29.5026038,20.8653061 C29.5026038,22.1142857 30.5429979,23.1428571 31.8063336,23.1428571 C33.0696692,23.1428571 34.1100633,22.1142857 34.1100633,20.8653061 C34.1100633,19.6163265 33.0696692,18.5877551 31.8063336,18.5877551 Z" id="Shape" fill="#4A4A4A"></path>
            <path d="M21.9225897,17.7428571 C19.4330753,17.7428571 17.3894441,15.722449 17.3894441,13.2612245 C17.3894441,10.8367347 19.4330753,8.81632653 21.9225897,8.81632653 C24.4121042,8.81632653 26.4557354,10.8367347 26.4557354,13.2979592 C26.4557354,15.7591837 24.4121042,17.7428571 21.9225897,17.7428571 Z M21.9225897,11.0204082 C20.659254,11.0204082 19.61886,12.0489796 19.61886,13.2979592 C19.61886,14.5469388 20.659254,15.5755102 21.9225897,15.5755102 C23.1859254,15.5755102 24.2263195,14.5469388 24.2263195,13.2979592 C24.2263195,12.0489796 23.1859254,11.0204082 21.9225897,11.0204082 Z" id="Shape" fill="#4A4A4A"></path>
            <path d="M35.5591837,35.9265306 L8.28599578,35.9265306 C3.93863476,35.9265306 0.371569317,32.4367347 0.371569317,28.1020408 L0.371569317,7.89795918 C0.371569317,3.56326531 3.93863476,0.0734693878 8.28599578,0.0734693878 L35.5220267,0.0734693878 C39.9065447,0.0734693878 43.4364532,3.6 43.4364532,7.89795918 L43.4364532,28.1020408 C43.4736101,32.4367347 39.9065447,35.9265306 35.5591837,35.9265306 Z M8.28599578,2.27755102 C5.16481351,2.27755102 2.60098522,4.7755102 2.60098522,7.89795918 L2.60098522,28.1020408 C2.60098522,31.2244898 5.16481351,33.722449 8.28599578,33.722449 L35.5220267,33.722449 C38.6803659,33.722449 41.2070373,31.1877551 41.2070373,28.1020408 L41.2070373,7.89795918 C41.2070373,4.7755102 38.643209,2.27755102 35.5220267,2.27755102 L8.28599578,2.27755102 Z" id="Shape" fill="#4A4A4A"></path>
        </g>
    </g>
</svg>