<?xml version="1.0" encoding="UTF-8"?>
<svg width="54px" height="64px" viewBox="0 0 54 64" version="1.1" xmlns="http://www.w3.org/2000/svg" xmlns:xlink="http://www.w3.org/1999/xlink">
    <!-- Generator: Sketch 48.1 (47250) - http://www.bohemiancoding.com/sketch -->
    <title>Group 7</title>
    <desc>Created with Sketch.</desc>
    <defs></defs>
    <g id="Score-(Analysing)" stroke="none" stroke-width="1" fill="none" fill-rule="evenodd" transform="translate(-819.000000, -371.000000)">
        <g id="Group-7" transform="translate(819.000000, 371.000000)" fill-rule="nonzero">
            <g id="icons8-purchase-order">
                <path d="M26.3863636,54.0377358 C25.7727273,54.0377358 25.2204545,53.7962264 24.8522727,53.3132075 L21.2318182,48.5433962 C20.6181818,47.7584906 20.8022727,46.6113208 21.6,46.0075472 C22.3977273,45.4037736 23.5636364,45.5849057 24.1772727,46.3698113 L26.325,49.1471698 L29.7613636,44.0150943 C30.3136364,43.1698113 31.4795455,42.9283019 32.3386364,43.5320755 C33.1977273,44.0754717 33.4431818,45.2226415 32.8295455,46.0679245 L27.9818182,53.2528302 C27.675,53.7358491 27.0613636,54.0377358 26.4477273,54.0981132 C26.4477273,54.0377358 26.3863636,54.0377358 26.3863636,54.0377358 Z" id="Shape" fill="#0057FF"></path>
                <path d="M40.1931818,16.9056604 L12.5795455,16.9056604 C11.5363636,16.9056604 10.7386364,16.1207547 10.7386364,15.0943396 C10.7386364,14.0679245 11.5363636,13.2830189 12.5795455,13.2830189 L40.1931818,13.2830189 C41.2363636,13.2830189 42.0340909,14.0679245 42.0340909,15.0943396 C42.0340909,16.1207547 41.2363636,16.9056604 40.1931818,16.9056604 Z" id="Shape" fill="#0057FF"></path>
                <path d="M40.1931818,25.9622642 L12.5795455,25.9622642 C11.5363636,25.9622642 10.7386364,25.1773585 10.7386364,24.1509434 C10.7386364,23.1245283 11.5363636,22.3396226 12.5795455,22.3396226 L40.1931818,22.3396226 C41.2363636,22.3396226 42.0340909,23.1245283 42.0340909,24.1509434 C42.0340909,25.1773585 41.2363636,25.9622642 40.1931818,25.9622642 Z" id="Shape" fill="#0057FF"></path>
                <path d="M25.1590909,35.0188679 L12.5795455,35.0188679 C11.5363636,35.0188679 10.7386364,34.2339623 10.7386364,33.2075472 C10.7386364,32.1811321 11.5363636,31.3962264 12.5795455,31.3962264 L25.1590909,31.3962264 C26.2022727,31.3962264 27,32.1811321 27,33.2075472 C27,34.2339623 26.2022727,35.0188679 25.1590909,35.0188679 Z" id="Shape" fill="#0057FF"></path>
                <path d="M45.7159091,64 L8.28409091,64 C3.86590909,64 0.306818182,60.4981132 0.306818182,56.1509434 L0.306818182,7.8490566 C0.306818182,3.50188679 3.86590909,0 8.28409091,0 L45.7159091,0 C50.1340909,0 53.6931818,3.50188679 53.6931818,7.8490566 L53.6931818,56.1509434 C53.6931818,60.4981132 50.1340909,64 45.7159091,64 Z M8.28409091,3.62264151 C5.89090909,3.62264151 3.98863636,5.49433962 3.98863636,7.8490566 L3.98863636,56.1509434 C3.98863636,58.5056604 5.89090909,60.3773585 8.28409091,60.3773585 L45.7159091,60.3773585 C48.1090909,60.3773585 50.0113636,58.5056604 50.0113636,56.1509434 L50.0113636,7.8490566 C50.0113636,5.49433962 48.1090909,3.62264151 45.7159091,3.62264151 L8.28409091,3.62264151 Z" id="Shape" fill="#4A4A4A"></path>
            </g>
        </g>
    </g>
</svg>