<?xml version="1.0" encoding="UTF-8"?>
<svg width="36px" height="36px" viewBox="0 0 36 36" version="1.1" xmlns="http://www.w3.org/2000/svg" xmlns:xlink="http://www.w3.org/1999/xlink">
    <!-- Generator: Sketch 48.1 (47250) - http://www.bohemiancoding.com/sketch -->
    <title>Group 9</title>
    <desc>Created with Sketch.</desc>
    <defs></defs>
    <g id="Score-(Analysing)" stroke="none" stroke-width="1" fill="none" fill-rule="evenodd" transform="translate(-1016.000000, -384.000000)">
        <g id="Group-9" transform="translate(1016.000000, 384.000000)" fill-rule="nonzero">
            <path d="M0.931034483,35.0689655 L0.931034483,2.48275862 C0.931034483,1.6137931 1.6137931,0.931034483 2.48275862,0.931034483 L33.5172414,0.931034483 C34.3862069,0.931034483 35.0689655,1.6137931 35.0689655,2.48275862 L35.0689655,35.0689655" id="Shape" fill="#FFFFFF"></path>
            <path d="M35.0689655,7.13793103 L0.931034483,7.13793103 L0.931034483,2.48275862 C0.931034483,1.6137931 1.6137931,0.931034483 2.48275862,0.931034483 L33.5172414,0.931034483 C34.3862069,0.931034483 35.0689655,1.6137931 35.0689655,2.48275862 L35.0689655,7.13793103 Z" id="Shape" fill="#0057FF"></path>
            <path d="M30.4137931,14.2758621 C30.662069,14.2758621 30.9103448,14.1827586 31.0655172,13.9965517 C31.2517241,13.8103448 31.3448276,13.5931034 31.3448276,13.3448276 C31.3448276,13.0965517 31.2517241,12.8482759 31.0655172,12.6931034 C30.7241379,12.3517241 30.1034483,12.3517241 29.762069,12.6931034 C29.5758621,12.8793103 29.4827586,13.0965517 29.4827586,13.3448276 C29.4827586,13.5931034 29.5758621,13.8413793 29.762069,13.9965517 C29.9172414,14.1827586 30.1655172,14.2758621 30.4137931,14.2758621 Z" id="Shape" fill="#0057FF"></path>
            <path d="M25.7586207,14.2758621 L27.3103448,14.2758621 C27.837931,14.2758621 28.2413793,13.8724138 28.2413793,13.3448276 C28.2413793,12.8172414 27.837931,12.4137931 27.3103448,12.4137931 L25.7586207,12.4137931 C25.2310345,12.4137931 24.8275862,12.8172414 24.8275862,13.3448276 C24.8275862,13.8724138 25.2310345,14.2758621 25.7586207,14.2758621 Z" id="Shape" fill="#0057FF"></path>
            <path d="M20.7931034,20.4827586 C21.0413793,20.4827586 21.2896552,20.3896552 21.4448276,20.2034483 C21.6310345,20.0172414 21.7241379,19.8 21.7241379,19.5517241 C21.7241379,19.3034483 21.6310345,19.0551724 21.4448276,18.9 C21.1034483,18.5586207 20.4827586,18.5586207 20.1413793,18.9 C19.9551724,19.0551724 19.862069,19.3034483 19.862069,19.5517241 C19.862069,19.8 19.9551724,20.0482759 20.1413793,20.2034483 C20.2965517,20.3896552 20.5448276,20.4827586 20.7931034,20.4827586 Z" id="Shape" fill="#0057FF"></path>
            <path d="M14.2758621,20.4827586 C14.5241379,20.4827586 14.7724138,20.3896552 14.9275862,20.2034483 C15.1137931,20.0172414 15.2068966,19.8 15.2068966,19.5517241 C15.2068966,19.3034483 15.1137931,19.0551724 14.9275862,18.9 C14.5862069,18.5586207 13.9655172,18.5586207 13.6241379,18.9 C13.437931,19.0551724 13.3448276,19.3034483 13.3448276,19.5517241 C13.3448276,19.8 13.437931,20.0482759 13.6241379,20.2034483 C13.7793103,20.3896552 14.0275862,20.4827586 14.2758621,20.4827586 Z" id="Shape" fill="#0057FF"></path>
            <path d="M5.5862069,20.4827586 L6.82758621,20.4827586 C7.35517241,20.4827586 7.75862069,20.0793103 7.75862069,19.5517241 C7.75862069,19.0241379 7.35517241,18.6206897 6.82758621,18.6206897 L5.5862069,18.6206897 C5.05862069,18.6206897 4.65517241,19.0241379 4.65517241,19.5517241 C4.65517241,20.0793103 5.05862069,20.4827586 5.5862069,20.4827586 Z" id="Shape" fill="#0057FF"></path>
            <path d="M16.7586207,20.4827586 L18.3103448,20.4827586 C18.837931,20.4827586 19.2413793,20.0793103 19.2413793,19.5517241 C19.2413793,19.0241379 18.837931,18.6206897 18.3103448,18.6206897 L16.7586207,18.6206897 C16.2310345,18.6206897 15.8275862,19.0241379 15.8275862,19.5517241 C15.8275862,20.0793103 16.2310345,20.4827586 16.7586207,20.4827586 Z" id="Shape" fill="#0057FF"></path>
            <path d="M5.89655172,14.2758621 C6.14482759,14.2758621 6.39310345,14.1827586 6.54827586,13.9965517 C6.73448276,13.8103448 6.82758621,13.5931034 6.82758621,13.3448276 C6.82758621,13.0965517 6.73448276,12.8482759 6.54827586,12.6931034 C6.20689655,12.3517241 5.5862069,12.3517241 5.24482759,12.6931034 C5.05862069,12.8482759 4.96551724,13.0965517 4.96551724,13.3448276 C4.96551724,13.5931034 5.05862069,13.8413793 5.24482759,13.9965517 C5.4,14.1827586 5.64827586,14.2758621 5.89655172,14.2758621 Z" id="Shape" fill="#0057FF"></path>
            <path d="M8.37931034,14.2758621 C8.62758621,14.2758621 8.87586207,14.1827586 9.03103448,13.9965517 C9.21724138,13.8103448 9.31034483,13.5931034 9.31034483,13.3448276 C9.31034483,13.0965517 9.21724138,12.8482759 9.03103448,12.6931034 C8.68965517,12.3517241 8.06896552,12.3517241 7.72758621,12.6931034 C7.54137931,12.8482759 7.44827586,13.0965517 7.44827586,13.3448276 C7.44827586,13.5931034 7.54137931,13.8413793 7.72758621,13.9965517 C7.88275862,14.1827586 8.13103448,14.2758621 8.37931034,14.2758621 Z" id="Shape" fill="#0057FF"></path>
            <path d="M5.89655172,17.3793103 C6.14482759,17.3793103 6.39310345,17.2862069 6.54827586,17.1 C6.73448276,16.9137931 6.82758621,16.6965517 6.82758621,16.4482759 C6.82758621,16.2 6.73448276,15.9517241 6.54827586,15.7965517 C6.20689655,15.4551724 5.5862069,15.4551724 5.24482759,15.7965517 C5.05862069,15.9517241 4.96551724,16.2 4.96551724,16.4482759 C4.96551724,16.6965517 5.05862069,16.9448276 5.24482759,17.1 C5.4,17.2862069 5.64827586,17.3793103 5.89655172,17.3793103 Z" id="Shape" fill="#0057FF"></path>
            <path d="M13.0344828,17.3793103 C13.2827586,17.3793103 13.5310345,17.2862069 13.6862069,17.1 C13.8724138,16.9137931 13.9655172,16.6965517 13.9655172,16.4482759 C13.9655172,16.2 13.8724138,15.9517241 13.6862069,15.7965517 C13.3448276,15.4551724 12.7241379,15.4551724 12.3827586,15.7965517 C12.1965517,15.9517241 12.1034483,16.2 12.1034483,16.4482759 C12.1034483,16.6965517 12.1965517,16.9448276 12.3827586,17.1 C12.537931,17.2862069 12.7862069,17.3793103 13.0344828,17.3793103 Z" id="Shape" fill="#0057FF"></path>
            <path d="M21.7241379,17.3793103 L25.137931,17.3793103 C25.6655172,17.3793103 26.0689655,16.9758621 26.0689655,16.4482759 C26.0689655,15.9206897 25.6655172,15.5172414 25.137931,15.5172414 L21.7241379,15.5172414 C21.1965517,15.5172414 20.7931034,15.9206897 20.7931034,16.4482759 C20.7931034,16.9758621 21.1965517,17.3793103 21.7241379,17.3793103 Z" id="Shape" fill="#0057FF"></path>
            <path d="M30.4137931,17.3793103 C30.662069,17.3793103 30.9103448,17.2862069 31.0655172,17.1 C31.2517241,16.9137931 31.3448276,16.6965517 31.3448276,16.4482759 C31.3448276,16.2 31.2517241,15.9517241 31.0655172,15.7965517 C30.7241379,15.4551724 30.1034483,15.4551724 29.762069,15.7965517 C29.5758621,15.9827586 29.4827586,16.2 29.4827586,16.4482759 C29.4827586,16.6965517 29.5758621,16.9448276 29.762069,17.1 C29.9172414,17.2862069 30.1655172,17.3793103 30.4137931,17.3793103 Z" id="Shape" fill="#7CA5C6"></path>
            <path d="M5.5862069,29.7931034 C5.83448276,29.7931034 6.08275862,29.7 6.23793103,29.5137931 C6.42413793,29.3275862 6.51724138,29.1103448 6.51724138,28.862069 C6.51724138,28.6137931 6.42413793,28.3655172 6.23793103,28.2103448 C5.89655172,27.8689655 5.27586207,27.8689655 4.93448276,28.2103448 C4.74827586,28.3655172 4.65517241,28.6137931 4.65517241,28.862069 C4.65517241,29.1103448 4.74827586,29.3586207 4.93448276,29.5137931 C5.08965517,29.7 5.33793103,29.7931034 5.5862069,29.7931034 Z" id="Shape" fill="#0057FF"></path>
            <path d="M12.7241379,29.7931034 C12.9724138,29.7931034 13.2206897,29.7 13.3758621,29.5137931 C13.562069,29.3275862 13.6551724,29.1103448 13.6551724,28.862069 C13.6551724,28.6137931 13.562069,28.3655172 13.3758621,28.2103448 C13.0344828,27.8689655 12.4137931,27.8689655 12.0724138,28.2103448 C11.8862069,28.3655172 11.7931034,28.6137931 11.7931034,28.862069 C11.7931034,29.1103448 11.8862069,29.3586207 12.0724138,29.5137931 C12.2275862,29.7 12.4758621,29.7931034 12.7241379,29.7931034 Z" id="Shape" fill="#0057FF"></path>
            <path d="M15.2068966,23.5862069 C15.4551724,23.5862069 15.7034483,23.4931034 15.8586207,23.3068966 C16.0448276,23.1206897 16.137931,22.9034483 16.137931,22.6551724 C16.137931,22.4068966 16.0448276,22.1586207 15.8586207,22.0034483 C15.5172414,21.662069 14.8965517,21.662069 14.5551724,22.0034483 C14.3689655,22.1586207 14.2758621,22.4068966 14.2758621,22.6551724 C14.2758621,22.9034483 14.3689655,23.1517241 14.5551724,23.3068966 C14.7103448,23.4931034 14.9586207,23.5862069 15.2068966,23.5862069 Z" id="Shape" fill="#0057FF"></path>
            <path d="M17.6896552,23.5862069 L19.2413793,23.5862069 C19.7689655,23.5862069 20.1724138,23.1827586 20.1724138,22.6551724 C20.1724138,22.1275862 19.7689655,21.7241379 19.2413793,21.7241379 L17.6896552,21.7241379 C17.162069,21.7241379 16.7586207,22.1275862 16.7586207,22.6551724 C16.7586207,23.1827586 17.162069,23.5862069 17.6896552,23.5862069 Z" id="Shape" fill="#0057FF"></path>
            <path d="M15.2068966,29.7931034 L18.6206897,29.7931034 C19.1482759,29.7931034 19.5517241,29.3896552 19.5517241,28.862069 C19.5517241,28.3344828 19.1482759,27.9310345 18.6206897,27.9310345 L15.2068966,27.9310345 C14.6793103,27.9310345 14.2758621,28.3344828 14.2758621,28.862069 C14.2758621,29.3896552 14.6793103,29.7931034 15.2068966,29.7931034 Z" id="Shape" fill="#0057FF"></path>
            <path d="M30.4137931,29.7931034 C30.662069,29.7931034 30.9103448,29.7 31.0655172,29.5137931 C31.2517241,29.3275862 31.3448276,29.1103448 31.3448276,28.862069 C31.3448276,28.6137931 31.2517241,28.3655172 31.0655172,28.2103448 C30.7241379,27.8689655 30.1034483,27.8689655 29.762069,28.2103448 C29.5758621,28.3965517 29.4827586,28.6137931 29.4827586,28.862069 C29.4827586,29.1103448 29.5758621,29.3586207 29.762069,29.5137931 C29.9172414,29.7 30.1655172,29.7931034 30.4137931,29.7931034 Z" id="Shape" fill="#0057FF"></path>
            <path d="M21.4137931,29.7931034 C21.662069,29.7931034 21.9103448,29.7 22.0655172,29.5137931 C22.2517241,29.3275862 22.3448276,29.1103448 22.3448276,28.862069 C22.3448276,28.6137931 22.2517241,28.3655172 22.0655172,28.2103448 C21.7241379,27.8689655 21.1034483,27.8689655 20.762069,28.2103448 C20.5758621,28.3655172 20.4827586,28.6137931 20.4827586,28.862069 C20.4827586,29.1103448 20.5758621,29.3586207 20.762069,29.5137931 C20.9172414,29.7 21.1655172,29.7931034 21.4137931,29.7931034 Z" id="Shape" fill="#7CA5C6"></path>
            <path d="M30.4137931,26.6896552 C30.662069,26.6896552 30.9103448,26.5965517 31.0655172,26.4103448 C31.2517241,26.2241379 31.3448276,26.0068966 31.3448276,25.7586207 C31.3448276,25.5103448 31.2517241,25.262069 31.0655172,25.1068966 C30.7241379,24.7655172 30.1034483,24.7655172 29.762069,25.1068966 C29.5758621,25.2931034 29.4827586,25.5103448 29.4827586,25.7586207 C29.4827586,26.0068966 29.5758621,26.2551724 29.762069,26.4103448 C29.9172414,26.5965517 30.1655172,26.6896552 30.4137931,26.6896552 Z" id="Shape" fill="#0057FF"></path>
            <path d="M17.0689655,26.6896552 L20.4827586,26.6896552 C21.0103448,26.6896552 21.4137931,26.2862069 21.4137931,25.7586207 C21.4137931,25.2310345 21.0103448,24.8275862 20.4827586,24.8275862 L17.0689655,24.8275862 C16.5413793,24.8275862 16.137931,25.2310345 16.137931,25.7586207 C16.137931,26.2862069 16.5413793,26.6896552 17.0689655,26.6896552 Z" id="Shape" fill="#0057FF"></path>
            <path d="M5.5862069,26.6896552 C5.83448276,26.6896552 6.08275862,26.5965517 6.23793103,26.4103448 C6.42413793,26.2241379 6.51724138,26.0068966 6.51724138,25.7586207 C6.51724138,25.5103448 6.42413793,25.262069 6.23793103,25.1068966 C5.89655172,24.7655172 5.27586207,24.7655172 4.93448276,25.1068966 C4.74827586,25.262069 4.65517241,25.5103448 4.65517241,25.7586207 C4.65517241,26.0068966 4.74827586,26.2551724 4.93448276,26.4103448 C5.08965517,26.5965517 5.33793103,26.6896552 5.5862069,26.6896552 Z" id="Shape" fill="#0057FF"></path>
            <path d="M8.06896552,26.6896552 C8.31724138,26.6896552 8.56551724,26.5965517 8.72068966,26.4103448 C8.90689655,26.2241379 9,26.0068966 9,25.7586207 C9,25.5103448 8.90689655,25.262069 8.72068966,25.1068966 C8.37931034,24.7655172 7.75862069,24.7655172 7.41724138,25.1068966 C7.23103448,25.262069 7.13793103,25.5103448 7.13793103,25.7586207 C7.13793103,26.0068966 7.23103448,26.2551724 7.41724138,26.4103448 C7.57241379,26.5965517 7.82068966,26.6896552 8.06896552,26.6896552 Z" id="Shape" fill="#0057FF"></path>
            <path d="M5.5862069,23.5862069 L8.68965517,23.5862069 C9.21724138,23.5862069 9.62068966,23.1827586 9.62068966,22.6551724 C9.62068966,22.1275862 9.21724138,21.7241379 8.68965517,21.7241379 L5.5862069,21.7241379 C5.05862069,21.7241379 4.65517241,22.1275862 4.65517241,22.6551724 C4.65517241,23.1827586 5.05862069,23.5862069 5.5862069,23.5862069 Z" id="Shape" fill="#0057FF"></path>
            <path d="M35.0689655,36 C34.5413793,36 34.137931,35.5965517 34.137931,35.0689655 L34.137931,2.48275862 C34.137931,2.14137931 33.8586207,1.86206897 33.5172414,1.86206897 L2.48275862,1.86206897 C2.14137931,1.86206897 1.86206897,2.14137931 1.86206897,2.48275862 L1.86206897,35.0689655 C1.86206897,35.5965517 1.45862069,36 0.931034483,36 C0.403448276,36 0,35.5965517 0,35.0689655 L0,2.48275862 C0,1.11724138 1.11724138,0 2.48275862,0 L33.5172414,0 C34.8827586,0 36,1.11724138 36,2.48275862 L36,35.0689655 C36,35.5965517 35.5965517,36 35.0689655,36 Z" id="Shape" fill="#4A4A4A"></path>
            <g id="Group" transform="translate(3.103448, 3.413793)" fill="#FFFFFF">
                <path d="M28.862069,0 L16.4482759,0 C15.9206897,0 15.5172414,0.403448276 15.5172414,0.931034483 C15.5172414,1.45862069 15.9206897,1.86206897 16.4482759,1.86206897 L28.862069,1.86206897 C29.3896552,1.86206897 29.7931034,1.45862069 29.7931034,0.931034483 C29.7931034,0.403448276 29.3896552,0 28.862069,0 Z" id="Shape"></path>
                <path d="M6.4862069,0.279310345 C6.3,0.434482759 6.20689655,0.682758621 6.20689655,0.931034483 C6.20689655,1.17931034 6.3,1.42758621 6.4862069,1.58275862 C6.67241379,1.76896552 6.88965517,1.86206897 7.13793103,1.86206897 C7.3862069,1.86206897 7.63448276,1.76896552 7.78965517,1.58275862 C7.97586207,1.39655172 8.06896552,1.17931034 8.06896552,0.931034483 C8.06896552,0.682758621 7.97586207,0.434482759 7.78965517,0.279310345 C7.44827586,-0.0620689655 6.82758621,-0.0620689655 6.4862069,0.279310345 Z" id="Shape"></path>
                <path d="M3.38275862,0.279310345 C3.19655172,0.434482759 3.10344828,0.682758621 3.10344828,0.931034483 C3.10344828,1.17931034 3.19655172,1.42758621 3.38275862,1.58275862 C3.56896552,1.76896552 3.7862069,1.86206897 4.03448276,1.86206897 C4.28275862,1.86206897 4.53103448,1.76896552 4.6862069,1.58275862 C4.87241379,1.39655172 4.96551724,1.17931034 4.96551724,0.931034483 C4.96551724,0.682758621 4.87241379,0.434482759 4.6862069,0.279310345 C4.34482759,-0.0620689655 3.72413793,-0.0620689655 3.38275862,0.279310345 Z" id="Shape"></path>
                <path d="M0.279310345,0.279310345 C0.0931034483,0.434482759 0,0.682758621 0,0.931034483 C0,1.17931034 0.0931034483,1.42758621 0.279310345,1.58275862 C0.465517241,1.76896552 0.682758621,1.86206897 0.931034483,1.86206897 C1.17931034,1.86206897 1.42758621,1.76896552 1.58275862,1.58275862 C1.76896552,1.39655172 1.86206897,1.17931034 1.86206897,0.931034483 C1.86206897,0.682758621 1.76896552,0.434482759 1.58275862,0.279310345 C1.24137931,-0.0620689655 0.620689655,-0.0620689655 0.279310345,0.279310345 Z" id="Shape"></path>
            </g>
            <path d="M29.6689655,19.9551724 L30.8482759,17.937931 C31.1586207,17.3793103 30.9724138,16.6655172 30.4137931,16.3241379 L26.7517241,14.2137931 C26.1931034,13.9034483 25.4793103,14.0896552 25.137931,14.6482759 L23.9586207,16.6655172" id="Shape" fill="#FFFFFF"></path>
            <path d="M17.162069,36 C17.0068966,36 16.8517241,35.9689655 16.6965517,35.8758621 C16.4172414,35.7206897 16.2310345,35.4103448 16.2310345,35.0689655 L16.262069,28.4586207 C16.262069,27.9310345 16.6655172,27.5275862 17.1931034,27.5275862 C17.1931034,27.5275862 17.1931034,27.5275862 17.1931034,27.5275862 C17.7206897,27.5275862 18.1241379,27.962069 18.1241379,28.4586207 L18.0931034,33.4551724 L22.4068966,30.9413793 C22.8413793,30.6931034 23.4310345,30.8172414 23.6793103,31.2827586 C23.9275862,31.7172414 23.8034483,32.3068966 23.337931,32.5551724 L17.6275862,35.8758621 C17.4724138,35.9689655 17.3172414,36 17.162069,36 Z" id="Shape" fill="#454B54"></path>
            <polygon id="Shape" fill="#FFFFFF" points="17.1931034 28.4586207 17.162069 35.0689655 22.8724138 31.7482759 29.6689655 19.9551724 23.9896552 16.6655172"></polygon>
            <polygon id="Shape" fill="#0057FF" points="20.1724138 29.8862069 23.0275862 31.5310345 23.0275862 31.5310345 29.8241379 19.7689655 26.9689655 18.1241379"></polygon>
            <path d="M22.8724138,32.6793103 C22.7172414,32.6793103 22.562069,32.6482759 22.4068966,32.5551724 L16.7275862,29.2655172 C16.2931034,29.0172414 16.137931,28.4275862 16.3862069,27.9931034 L23.1827586,16.2 C23.4310345,15.7655172 24.0206897,15.6103448 24.4551724,15.8586207 L30.1344828,19.1482759 C30.3517241,19.2724138 30.5068966,19.4896552 30.5689655,19.7068966 C30.6310345,19.9241379 30.6,20.2034483 30.4758621,20.4206897 L23.6793103,32.2137931 C23.5551724,32.4310345 23.337931,32.5862069 23.1206897,32.6482759 C23.0275862,32.6482759 22.9655172,32.6793103 22.8724138,32.6793103 Z M18.4655172,28.1172414 L22.5310345,30.4758621 L28.3965517,20.2965517 L24.3310345,17.937931 L18.4655172,28.1172414 Z" id="Shape" fill="#4A4A4A"></path>
            <path d="M29.6689655,20.8862069 C29.5137931,20.8862069 29.3586207,20.8551724 29.2034483,20.762069 C28.7689655,20.5137931 28.6137931,19.9241379 28.862069,19.4896552 L30.0413793,17.4724138 C30.0724138,17.4103448 30.0724138,17.3482759 30.0724138,17.2862069 C30.0724138,17.2551724 30.0413793,17.1931034 29.9482759,17.1310345 L26.2862069,15.0206897 C26.2241379,14.9896552 26.162069,14.9896552 26.1,14.9896552 C26.0689655,14.9896552 26.0068966,15.0206897 25.9448276,15.1137931 L24.7655172,17.1310345 C24.5172414,17.5655172 23.9275862,17.7206897 23.4931034,17.4724138 C23.0586207,17.2241379 22.9034483,16.6344828 23.1517241,16.2 L24.3310345,14.1827586 C24.6103448,13.6862069 25.0758621,13.3448276 25.6034483,13.1896552 C26.162069,13.0344828 26.7206897,13.1275862 27.1862069,13.4068966 L30.8482759,15.5172414 C31.3448276,15.7965517 31.6862069,16.262069 31.8413793,16.7896552 C31.9965517,17.3172414 31.9034483,17.9068966 31.6241379,18.3724138 L30.4448276,20.3896552 C30.3206897,20.7 29.9793103,20.8862069 29.6689655,20.8862069 Z" id="Shape" fill="#4A4A4A"></path>
            <path d="M16.7896552,35.6896552 C17.0068966,35.8137931 17.2862069,35.8137931 17.5034483,35.6896552 L23.1827586,32.3689655 C23.462069,32.1827586 23.6172414,31.8413793 23.5241379,31.5310345 C23.3689655,31.0965517 22.8724138,30.9413793 22.5,31.1586207 L18.9310345,33.2068966 C18.4655172,33.4862069 17.8758621,33.1448276 17.8758621,32.5862069 L17.9068966,28.4586207 C17.9068966,28.1172414 17.6896552,27.8068966 17.3482759,27.7448276 C16.9137931,27.6517241 16.5103448,27.9931034 16.5103448,28.4275862 L16.4482759,35.0689655 C16.4482759,35.3172414 16.5724138,35.5655172 16.7896552,35.6896552 Z" id="Shape" fill="#4A4A4A"></path>
            <path d="M8.84482759,36 L5.5862069,36 C5.05862069,36 4.65517241,35.5965517 4.65517241,35.0689655 C4.65517241,34.5413793 5.05862069,34.137931 5.5862069,34.137931 L8.84482759,34.137931 C9.37241379,34.137931 9.77586207,34.5413793 9.77586207,35.0689655 C9.77586207,35.5965517 9.34137931,36 8.84482759,36 Z" id="Shape" fill="#4A4A4A"></path>
            <path d="M11.4206897,36 C11.1724138,36 10.9241379,35.9068966 10.7689655,35.7206897 C10.5827586,35.5344828 10.4896552,35.3172414 10.4896552,35.0689655 C10.4896552,34.8206897 10.5827586,34.5724138 10.7689655,34.4172414 C11.1103448,34.0758621 11.7310345,34.0758621 12.0724138,34.4172414 C12.2586207,34.6034483 12.3517241,34.8206897 12.3517241,35.0689655 C12.3517241,35.3172414 12.2586207,35.5655172 12.0724138,35.7206897 C11.9172414,35.9068966 11.6689655,36 11.4206897,36 Z" id="Shape" fill="#4A4A4A"></path>
            <path d="M13.7793103,36 C13.5310345,36 13.2827586,35.9068966 13.1275862,35.7206897 C12.9413793,35.5344828 12.8482759,35.3172414 12.8482759,35.0689655 C12.8482759,34.8206897 12.9413793,34.5724138 13.1275862,34.4172414 C13.4689655,34.0758621 14.0896552,34.0758621 14.4310345,34.4172414 C14.6172414,34.6034483 14.7103448,34.8206897 14.7103448,35.0689655 C14.7103448,35.3172414 14.6172414,35.5655172 14.4310345,35.7206897 C14.2448276,35.9068966 13.9965517,36 13.7793103,36 Z" id="Shape" fill="#4A4A4A"></path>
        </g>
    </g>
</svg>