<?xml version="1.0" encoding="UTF-8"?>
<svg width="34px" height="36px" viewBox="0 0 34 36" version="1.1" xmlns="http://www.w3.org/2000/svg" xmlns:xlink="http://www.w3.org/1999/xlink">
    <!-- Generator: Sketch 48.1 (47250) - http://www.bohemiancoding.com/sketch -->
    <title>Group 8</title>
    <desc>Created with Sketch.</desc>
    <defs></defs>
    <g id="Score-(Analysing)" stroke="none" stroke-width="1" fill="none" fill-rule="evenodd" transform="translate(-1211.000000, -384.000000)">
        <g id="Group-8" transform="translate(1211.000000, 384.000000)" fill-rule="nonzero">
            <path d="M29.9818182,35.0689655 L11.4363636,35.0689655 C9.73636364,35.0689655 8.34545455,33.6724138 8.34545455,31.9655172 L8.34545455,4.03448276 C8.34545455,2.32758621 9.73636364,0.931034483 11.4363636,0.931034483 L29.9818182,0.931034483 C31.6818182,0.931034483 33.0727273,2.32758621 33.0727273,4.03448276 L33.0727273,31.9655172 C33.0727273,33.6724138 31.6818182,35.0689655 29.9818182,35.0689655 Z" id="Shape" fill="#FFFFFF"></path>
            <path d="M29.3636364,5.5862069 L12.0545455,5.5862069 L12.0545455,11.7931034 L25.9636364,11.7931034 L25.9636364,11.637931 C25.9636364,11.1103448 26.3654545,10.7068966 26.8909091,10.7068966 C27.4163636,10.7068966 27.8181818,11.1103448 27.8181818,11.637931 L27.8181818,11.7931034 L29.3636364,11.7931034 L29.3636364,5.5862069 Z" id="Shape" fill="#0057FF"></path>
            <path d="M29.9818182,36 L11.4363636,36 C9.21090909,36 7.41818182,34.2 7.41818182,31.9655172 L7.41818182,4.03448276 C7.41818182,1.8 9.21090909,0 11.4363636,0 L29.9818182,0 C32.2072727,0 34,1.8 34,4.03448276 L34,31.9655172 C34,34.2 32.2072727,36 29.9818182,36 Z M11.4363636,1.86206897 C10.2309091,1.86206897 9.27272727,2.82413793 9.27272727,4.03448276 L9.27272727,31.9655172 C9.27272727,33.1758621 10.2309091,34.137931 11.4363636,34.137931 L29.9818182,34.137931 C31.1872727,34.137931 32.1454545,33.1758621 32.1454545,31.9655172 L32.1454545,4.03448276 C32.1454545,2.82413793 31.1872727,1.86206897 29.9818182,1.86206897 L11.4363636,1.86206897 Z" id="Shape" fill="#4A4A4A"></path>
            <path d="M24.4181818,11.4827586 C23.8927273,11.4827586 23.4909091,11.0793103 23.4909091,10.5517241 L23.4909091,8.93793103 C23.12,8.8137931 22.8727273,8.47241379 22.8727273,8.06896552 C22.8727273,7.66551724 23.12,7.32413793 23.4909091,7.2 L23.4909091,7.13793103 C23.4909091,6.61034483 23.8927273,6.20689655 24.4181818,6.20689655 C24.9436364,6.20689655 25.3454545,6.61034483 25.3454545,7.13793103 L25.3454545,10.5517241 C25.3454545,11.0793103 24.9436364,11.4827586 24.4181818,11.4827586 Z" id="Shape" fill="#FFFFFF"></path>
            <ellipse id="Oval" fill-opacity="0.37" fill="#0057FF" cx="20.7090909" cy="17.8448276" rx="2.62727273" ry="2.63793103"></ellipse>
            <ellipse id="Oval" fill-opacity="0.37" fill="#0057FF" cx="20.7090909" cy="24.0517241" rx="2.62727273" ry="2.63793103"></ellipse>
            <ellipse id="Oval" fill-opacity="0.37" fill="#0057FF" cx="20.7090909" cy="30.2586207" rx="2.62727273" ry="2.63793103"></ellipse>
            <ellipse id="Oval" fill-opacity="0.37" fill="#0057FF" cx="14.5272727" cy="17.8448276" rx="2.62727273" ry="2.63793103"></ellipse>
            <ellipse id="Oval" fill-opacity="0.37" fill="#0057FF" cx="14.5272727" cy="24.0517241" rx="2.62727273" ry="2.63793103"></ellipse>
            <ellipse id="Oval" fill-opacity="0.37" fill="#0057FF" cx="14.5272727" cy="30.2586207" rx="2.62727273" ry="2.63793103"></ellipse>
            <ellipse id="Oval" fill-opacity="0.37" fill="#0057FF" cx="26.8909091" cy="17.8448276" rx="2.62727273" ry="2.63793103"></ellipse>
            <ellipse id="Oval" fill-opacity="0.37" fill="#0057FF" cx="26.8909091" cy="24.0517241" rx="2.62727273" ry="2.63793103"></ellipse>
            <ellipse id="Oval" fill-opacity="0.37" fill="#0057FF" cx="26.8909091" cy="30.2586207" rx="2.62727273" ry="2.63793103"></ellipse>
            <path d="M25.3454545,36 L9.58181818,36 C7.35636364,36 5.56363636,34.2 5.56363636,31.9655172 C5.56363636,31.9344828 5.56363636,31.9344828 5.56363636,31.9034483 L7.41818182,3.97241379 C7.44909091,3.44482759 7.91272727,3.07241379 8.40727273,3.10344828 C8.93272727,3.13448276 9.30363636,3.56896552 9.27272727,4.09655172 L7.41818182,31.9965517 C7.41818182,33.1758621 8.40727273,34.137931 9.58181818,34.137931 L25.3454545,34.137931 C25.8709091,34.137931 26.2727273,34.5413793 26.2727273,35.0689655 C26.2727273,35.5965517 25.8709091,36 25.3454545,36 Z" id="Shape" fill="#4A4A4A"></path>
            <path d="M20.7090909,36 L3.70909091,36 C3.18363636,36 2.78181818,35.5965517 2.78181818,35.0689655 C2.78181818,34.5413793 3.18363636,34.137931 3.70909091,34.137931 L20.7090909,34.137931 C21.2345455,34.137931 21.6363636,34.5413793 21.6363636,35.0689655 C21.6363636,35.5965517 21.2345455,36 20.7090909,36 Z" id="Shape" fill="#4A4A4A"></path>
            <path d="M0.927272727,36 C0.68,36 0.432727273,35.9068966 0.278181818,35.7206897 C0.0927272727,35.5655172 0,35.3172414 0,35.0689655 C0,34.8206897 0.0927272727,34.5724138 0.278181818,34.4172414 C0.618181818,34.0758621 1.23636364,34.0758621 1.57636364,34.4172414 C1.76181818,34.6034483 1.85454545,34.8206897 1.85454545,35.0689655 C1.85454545,35.3172414 1.76181818,35.5655172 1.57636364,35.7206897 C1.42181818,35.9068966 1.17454545,36 0.927272727,36 Z" id="Shape" fill="#4A4A4A"></path>
        </g>
    </g>
</svg>