<?xml version="1.0" encoding="UTF-8"?>
<svg width="20px" height="20px" viewBox="0 0 20 20" version="1.1" xmlns="http://www.w3.org/2000/svg" xmlns:xlink="http://www.w3.org/1999/xlink">
    <!-- Generator: Sketch 48.1 (47250) - http://www.bohemiancoding.com/sketch -->
    <title>Group 3</title>
    <desc>Created with Sketch.</desc>
    <defs></defs>
    <g id="Score-(Analysing)" stroke="none" stroke-width="1" fill="none" fill-rule="evenodd" transform="translate(-72.000000, -447.000000)">
        <g id="Group-3" transform="translate(72.000000, 447.000000)" fill="#7F92A6" fill-rule="nonzero">
            <path d="M19.375,20 L0.625,20 C0.321428571,20 0.0892857143,19.7657658 0.0892857143,19.4594595 C0.0892857143,19.1531532 0.321428571,18.9189189 0.625,18.9189189 L19.375,18.9189189 C19.6785714,18.9189189 19.9107143,19.1531532 19.9107143,19.4594595 C19.9107143,19.7657658 19.6785714,20 19.375,20 Z" id="Shape"></path>
            <path d="M18.4821429,18.1981982 L1.51785714,18.1981982 C1.21428571,18.1981982 0.982142857,17.963964 0.982142857,17.6576577 C0.982142857,17.3513514 1.21428571,17.1171171 1.51785714,17.1171171 L18.4821429,17.1171171 C18.7857143,17.1171171 19.0178571,17.3513514 19.0178571,17.6576577 C19.0178571,17.963964 18.7857143,18.1981982 18.4821429,18.1981982 Z" id="Shape"></path>
            <path d="M6.875,18.1981982 C5.58928571,18.1981982 4.55357143,17.1531532 4.55357143,15.8558559 L4.55357143,6.84684685 C4.55357143,5.54954955 5.58928571,4.5045045 6.875,4.5045045 C7.17857143,4.5045045 7.41071429,4.73873874 7.41071429,5.04504505 C7.41071429,5.35135135 7.17857143,5.58558559 6.875,5.58558559 C6.17857143,5.58558559 5.625,6.14414414 5.625,6.84684685 L5.625,15.8558559 C5.625,16.5585586 6.17857143,17.1171171 6.875,17.1171171 C7.17857143,17.1171171 7.41071429,17.3513514 7.41071429,17.6576577 C7.41071429,17.963964 7.17857143,18.1981982 6.875,18.1981982 Z" id="Shape"></path>
            <path d="M3.30357143,16.3963964 C3,16.3963964 2.76785714,16.1621622 2.76785714,15.8558559 L2.76785714,6.84684685 C2.76785714,6.14414414 2.21428571,5.58558559 1.51785714,5.58558559 C1.21428571,5.58558559 0.982142857,5.35135135 0.982142857,5.04504505 C0.982142857,4.73873874 1.21428571,4.5045045 1.51785714,4.5045045 C2.80357143,4.5045045 3.83928571,5.54954955 3.83928571,6.84684685 L3.83928571,15.8558559 C3.83928571,16.1621622 3.60714286,16.3963964 3.30357143,16.3963964 Z" id="Shape"></path>
            <path d="M13.125,18.1981982 C12.9821429,18.1981982 12.8392857,18.1441441 12.75,18.036036 C12.6428571,17.9279279 12.5892857,17.8018018 12.5892857,17.6576577 C12.5892857,17.5135135 12.6428571,17.3693694 12.75,17.2792793 C12.9464286,17.0810811 13.3035714,17.0810811 13.5,17.2792793 C13.6071429,17.3873874 13.6607143,17.5135135 13.6607143,17.6576577 C13.6607143,17.8018018 13.6071429,17.9459459 13.5,18.036036 C13.4107143,18.1441441 13.2678571,18.1981982 13.125,18.1981982 Z" id="Shape"></path>
            <path d="M13.125,18.1981982 C11.8392857,18.1981982 10.8035714,17.1531532 10.8035714,15.8558559 L10.8035714,6.84684685 C10.8035714,5.54954955 11.8392857,4.5045045 13.125,4.5045045 C13.4285714,4.5045045 13.6607143,4.73873874 13.6607143,5.04504505 C13.6607143,5.35135135 13.4285714,5.58558559 13.125,5.58558559 C12.4285714,5.58558559 11.875,6.14414414 11.875,6.84684685 L11.875,15.8558559 C11.875,16.5585586 12.4285714,17.1171171 13.125,17.1171171 C13.4285714,17.1171171 13.6607143,17.3513514 13.6607143,17.6576577 C13.6607143,17.963964 13.4285714,18.1981982 13.125,18.1981982 Z" id="Shape"></path>
            <path d="M18.4821429,18.1981982 C18.3392857,18.1981982 18.1964286,18.1441441 18.1071429,18.036036 C18,17.9279279 17.9464286,17.8018018 17.9464286,17.6576577 C17.9464286,17.5135135 18,17.3693694 18.1071429,17.2792793 C18.3035714,17.0810811 18.6607143,17.0810811 18.8571429,17.2792793 C18.9642857,17.3873874 19.0178571,17.5135135 19.0178571,17.6576577 C19.0178571,17.8018018 18.9642857,17.9459459 18.8571429,18.036036 C18.7678571,18.1441441 18.625,18.1981982 18.4821429,18.1981982 Z" id="Shape"></path>
            <path d="M18.4821429,18.1981982 C17.1964286,18.1981982 16.1607143,17.1531532 16.1607143,15.8558559 L16.1607143,6.84684685 C16.1607143,5.54954955 17.1964286,4.5045045 18.4821429,4.5045045 C18.7857143,4.5045045 19.0178571,4.73873874 19.0178571,5.04504505 C19.0178571,5.35135135 18.7857143,5.58558559 18.4821429,5.58558559 C17.7857143,5.58558559 17.2321429,6.14414414 17.2321429,6.84684685 L17.2321429,15.8558559 C17.2321429,16.5585586 17.7857143,17.1171171 18.4821429,17.1171171 C18.7857143,17.1171171 19.0178571,17.3513514 19.0178571,17.6576577 C19.0178571,17.963964 18.7857143,18.1981982 18.4821429,18.1981982 Z" id="Shape"></path>
            <path d="M14.9107143,16.3963964 C14.6071429,16.3963964 14.375,16.1621622 14.375,15.8558559 L14.375,6.84684685 C14.375,6.14414414 13.8214286,5.58558559 13.125,5.58558559 C12.8214286,5.58558559 12.5892857,5.35135135 12.5892857,5.04504505 C12.5892857,4.73873874 12.8214286,4.5045045 13.125,4.5045045 C14.4107143,4.5045045 15.4464286,5.54954955 15.4464286,6.84684685 L15.4464286,15.8558559 C15.4464286,16.1621622 15.2142857,16.3963964 14.9107143,16.3963964 Z" id="Shape"></path>
            <path d="M1.51785714,5.58558559 C1.21428571,5.58558559 0.982142857,5.35135135 0.982142857,5.04504505 L0.982142857,3.24324324 C0.982142857,2.93693694 1.21428571,2.7027027 1.51785714,2.7027027 C1.82142857,2.7027027 2.05357143,2.93693694 2.05357143,3.24324324 L2.05357143,5.04504505 C2.05357143,5.35135135 1.82142857,5.58558559 1.51785714,5.58558559 Z" id="Shape"></path>
            <path d="M7.76785714,5.58558559 L4.375,5.58558559 C4.07142857,5.58558559 3.83928571,5.35135135 3.83928571,5.04504505 C3.83928571,4.73873874 4.07142857,4.5045045 4.375,4.5045045 L7.76785714,4.5045045 C8.07142857,4.5045045 8.30357143,4.73873874 8.30357143,5.04504505 C8.30357143,5.35135135 8.07142857,5.58558559 7.76785714,5.58558559 Z" id="Shape"></path>
            <path d="M13.125,5.58558559 L10.625,5.58558559 C10.3214286,5.58558559 10.0892857,5.35135135 10.0892857,5.04504505 C10.0892857,4.73873874 10.3214286,4.5045045 10.625,4.5045045 L13.125,4.5045045 C13.4285714,4.5045045 13.6607143,4.73873874 13.6607143,5.04504505 C13.6607143,5.35135135 13.4285714,5.58558559 13.125,5.58558559 Z" id="Shape"></path>
            <path d="M18.4821429,5.58558559 L15.9821429,5.58558559 C15.6785714,5.58558559 15.4464286,5.35135135 15.4464286,5.04504505 C15.4464286,4.73873874 15.6785714,4.5045045 15.9821429,4.5045045 L17.9464286,4.5045045 L17.9464286,3.63963964 L10.4464286,1.27927928 L1.66071429,3.76576577 C1.375,3.83783784 1.08928571,3.67567568 1,3.38738739 C0.928571429,3.0990991 1.08928571,2.79279279 1.375,2.72072072 L10.3035714,0.198198198 C10.4107143,0.162162162 10.5,0.18018018 10.6071429,0.198198198 L18.6428571,2.72072072 C18.875,2.79279279 19.0178571,3.00900901 19.0178571,3.24324324 L19.0178571,5.04504505 C19.0178571,5.35135135 18.7857143,5.58558559 18.4821429,5.58558559 Z" id="Shape"></path>
            <path d="M18.3928571,3.78378378 L1.51785714,3.78378378 C1.21428571,3.78378378 0.982142857,3.54954955 0.982142857,3.24324324 C0.982142857,2.93693694 1.21428571,2.7027027 1.51785714,2.7027027 L18.3928571,2.7027027 C18.6964286,2.7027027 18.9285714,2.93693694 18.9285714,3.24324324 C18.9285714,3.54954955 18.6964286,3.78378378 18.3928571,3.78378378 Z" id="Shape"></path>
            <path d="M9.55357143,16.3963964 C9.25,16.3963964 9.01785714,16.1621622 9.01785714,15.8558559 L9.01785714,6.84684685 C9.01785714,6.14414414 8.46428571,5.58558559 7.76785714,5.58558559 C7.46428571,5.58558559 7.23214286,5.35135135 7.23214286,5.04504505 C7.23214286,4.73873874 7.46428571,4.5045045 7.76785714,4.5045045 C9.05357143,4.5045045 10.0892857,5.54954955 10.0892857,6.84684685 L10.0892857,15.8558559 C10.0892857,16.1621622 9.85714286,16.3963964 9.55357143,16.3963964 Z" id="Shape"></path>
        </g>
    </g>
</svg>