<?xml version="1.0" encoding="UTF-8"?>
<svg width="20px" height="20px" viewBox="0 0 20 20" version="1.1" xmlns="http://www.w3.org/2000/svg" xmlns:xlink="http://www.w3.org/1999/xlink">
    <!-- Generator: Sketch 48.1 (47250) - http://www.bohemiancoding.com/sketch -->
    <title>Group 11</title>
    <desc>Created with Sketch.</desc>
    <defs></defs>
    <g id="Score-(Analysing)" stroke="none" stroke-width="1" fill="none" fill-rule="evenodd" transform="translate(-72.000000, -359.000000)">
        <g id="Group-11" transform="translate(72.000000, 359.000000)" fill="#7F92A6" fill-rule="nonzero">
            <path d="M10,20 C4.56,20 0.12,15.52 0.12,10 C0.12,4.48 4.56,0 10,0 C15.44,0 19.88,4.48 19.88,10 C19.88,15.52 15.44,20 10,20 Z M10,1.2 C5.22,1.2 1.32,5.14 1.32,10 C1.32,14.86 5.2,18.8 10,18.8 C14.8,18.8 18.68,14.86 18.68,10 C18.68,5.14 14.78,1.2 10,1.2 Z" id="Shape"></path>
            <path d="M10,20 C4.56,20 0.12,15.52 0.12,10 C0.12,4.48 4.56,0 10,0 C15.44,0 19.88,4.48 19.88,10 C19.88,15.52 15.44,20 10,20 Z M10,1.2 C5.22,1.2 1.32,5.14 1.32,10 C1.32,14.86 5.2,18.8 10,18.8 C14.8,18.8 18.68,14.86 18.68,10 C18.68,5.14 14.78,1.2 10,1.2 Z" id="Shape"></path>
            <path d="M10,12.14 C8.82,12.14 7.88,11.18 7.88,10 C7.88,8.82 8.82,7.86 10,7.86 C11.18,7.86 12.12,8.82 12.12,10 C12.12,11.18 11.18,12.14 10,12.14 Z M10,9.06 C9.48,9.06 9.08,9.48 9.08,10 C9.08,10.52 9.5,10.94 10,10.94 C10.5,10.94 10.92,10.52 10.92,10 C10.92,9.48 10.52,9.06 10,9.06 Z" id="Shape"></path>
            <path d="M16.56,17.24 C16.4,17.24 16.24,17.18 16.14,17.06 L14.48,15.4 C14.24,15.16 14.24,14.8 14.48,14.56 C15.68,13.34 16.34,11.72 16.34,10 C16.34,6.44 13.5,3.56 9.98,3.56 C6.46,3.56 3.64,6.44 3.64,10 C3.64,11.72 4.3,13.34 5.5,14.56 C5.74,14.8 5.74,15.16 5.5,15.4 L3.86,17.06 C3.64,17.28 3.24,17.28 3,17.06 C1.14,15.18 0.12,12.66 0.12,10 C0.12,4.48 4.54,0 10,0 C15.46,0 19.88,4.48 19.88,10 C19.88,12.66 18.86,15.18 17,17.06 C16.86,17.18 16.72,17.24 16.56,17.24 Z M15.74,14.96 L16.54,15.76 C17.92,14.16 18.66,12.12 18.66,9.98 C18.66,5.12 14.78,1.18 9.98,1.18 C5.18,1.18 1.32,5.14 1.32,10 C1.32,12.14 2.08,14.18 3.44,15.78 L4.24,14.98 C3.06,13.6 2.44,11.86 2.44,10.02 C2.44,5.8 5.82,2.38 10,2.38 C14.18,2.38 17.56,5.82 17.56,10.02 C17.56,11.84 16.92,13.58 15.74,14.96 Z" id="Shape"></path>
            <path d="M11.1,9.5 C10.94,9.5 10.8,9.44 10.68,9.32 C10.44,9.08 10.44,8.7 10.68,8.48 L13.34,5.78 C13.58,5.54 13.96,5.54 14.18,5.78 C14.42,6.02 14.42,6.4 14.18,6.62 L11.52,9.32 C11.4,9.44 11.24,9.5 11.1,9.5 Z" id="Shape"></path>
            <path d="M11.82,17.16 L8.18,17.16 C7.84,17.16 7.58,16.9 7.58,16.56 C7.58,16.22 7.84,15.96 8.18,15.96 L11.84,15.96 C12.18,15.96 12.44,16.22 12.44,16.56 C12.44,16.9 12.16,17.16 11.82,17.16 Z" id="Shape"></path>
        </g>
    </g>
</svg>