<?xml version="1.0" encoding="UTF-8"?>
<svg width="16px" height="20px" viewBox="0 0 16 20" version="1.1" xmlns="http://www.w3.org/2000/svg" xmlns:xlink="http://www.w3.org/1999/xlink">
    <!-- Generator: Sketch 48.1 (47250) - http://www.bohemiancoding.com/sketch -->
    <title>Group 15</title>
    <desc>Created with Sketch.</desc>
    <defs></defs>
    <g id="Score-(Analysing)" stroke="none" stroke-width="1" fill="none" fill-rule="evenodd" transform="translate(-74.000000, -579.000000)">
        <g id="Group-15" transform="translate(74.000000, 579.000000)" fill="#7F92A6" fill-rule="nonzero">
            <path d="M11.6363636,9.05660377 C11.1272727,9.05660377 10.7272727,9.47169811 10.7272727,10 C10.7272727,10.2641509 10.8363636,10.490566 11,10.6603774 L9.56363636,12.9056604 C9.45454545,12.8490566 9.32727273,12.8301887 9.21818182,12.8301887 C9.03636364,12.8301887 8.85454545,12.8867925 8.70909091,12.9811321 L7.54545455,11.7735849 C7.63636364,11.6226415 7.69090909,11.4528302 7.69090909,11.245283 C7.69090909,10.7169811 7.29090909,10.3018868 6.78181818,10.3018868 C6.27272727,10.3018868 5.87272727,10.7169811 5.87272727,11.245283 C5.87272727,11.4339623 5.92727273,11.6226415 6.01818182,11.7735849 L4.85454545,12.9811321 C4.72727273,12.8867925 4.54545455,12.8301887 4.36363636,12.8301887 C3.85454545,12.8301887 3.45454545,13.245283 3.45454545,13.7735849 C3.45454545,14.3018868 3.85454545,14.7169811 4.36363636,14.7169811 C4.87272727,14.7169811 5.27272727,14.3018868 5.27272727,13.7735849 C5.27272727,13.5849057 5.21818182,13.3962264 5.12727273,13.245283 L6.29090909,12.0377358 C6.43636364,12.1320755 6.6,12.1886792 6.8,12.1886792 C6.98181818,12.1886792 7.16363636,12.1320755 7.30909091,12.0377358 L8.47272727,13.245283 C8.36363636,13.3962264 8.30909091,13.5849057 8.30909091,13.7735849 C8.30909091,14.3018868 8.70909091,14.7169811 9.21818182,14.7169811 C9.72727273,14.7169811 10.1272727,14.3018868 10.1272727,13.7735849 C10.1272727,13.509434 10.0181818,13.2830189 9.85454545,13.1132075 L11.2909091,10.8679245 C11.4,10.9056604 11.5090909,10.9433962 11.6363636,10.9433962 C12.1454545,10.9433962 12.5454545,10.5283019 12.5454545,10 C12.5454545,9.47169811 12.1454545,9.05660377 11.6363636,9.05660377 Z" id="Shape"></path>
            <rect id="Rectangle-path" x="2.45454545" y="2.45283019" width="11.0909091" height="2.83018868"></rect>
            <path d="M13.5454545,20 L2.45454545,20 C1.14545455,20 0.0909090909,18.9056604 0.0909090909,17.5471698 L0.0909090909,2.45283019 C0.0909090909,1.09433962 1.14545455,0 2.45454545,0 L13.5454545,0 C14.8545455,0 15.9090909,1.09433962 15.9090909,2.45283019 L15.9090909,17.5471698 C15.9090909,18.9056604 14.8545455,20 13.5454545,20 Z M2.45454545,1.13207547 C1.74545455,1.13207547 1.18181818,1.71698113 1.18181818,2.45283019 L1.18181818,17.5471698 C1.18181818,18.2830189 1.74545455,18.8679245 2.45454545,18.8679245 L13.5454545,18.8679245 C14.2545455,18.8679245 14.8181818,18.2830189 14.8181818,17.5471698 L14.8181818,2.45283019 C14.8181818,1.71698113 14.2545455,1.13207547 13.5454545,1.13207547 L2.45454545,1.13207547 Z" id="Shape"></path>
        </g>
    </g>
</svg>