<?xml version="1.0" encoding="UTF-8"?>
<svg width="17px" height="20px" viewBox="0 0 17 20" version="1.1" xmlns="http://www.w3.org/2000/svg" xmlns:xlink="http://www.w3.org/1999/xlink">
    <!-- Generator: Sketch 48.1 (47250) - http://www.bohemiancoding.com/sketch -->
    <title>Group 14</title>
    <desc>Created with Sketch.</desc>
    <defs></defs>
    <g id="Score-(Analysing)" stroke="none" stroke-width="1" fill="none" fill-rule="evenodd" transform="translate(-74.000000, -491.000000)">
        <g id="Group-14" transform="translate(74.000000, 491.000000)" fill="#7F92A6" fill-rule="nonzero">
            <rect id="Rectangle-path" x="2.54716981" y="2.45283019" width="11.509434" height="2.83018868"></rect>
            <path d="M12.9245283,9.05660377 L3.30188679,9.05660377 C2.98113208,9.05660377 2.73584906,8.81132075 2.73584906,8.49056604 C2.73584906,8.16981132 2.98113208,7.9245283 3.30188679,7.9245283 L12.9245283,7.9245283 C13.245283,7.9245283 13.490566,8.16981132 13.490566,8.49056604 C13.490566,8.81132075 13.245283,9.05660377 12.9245283,9.05660377 Z" id="Shape"></path>
            <path d="M12.9245283,11.8867925 L3.30188679,11.8867925 C2.98113208,11.8867925 2.73584906,11.6415094 2.73584906,11.3207547 C2.73584906,11 2.98113208,10.754717 3.30188679,10.754717 L12.9245283,10.754717 C13.245283,10.754717 13.490566,11 13.490566,11.3207547 C13.490566,11.6415094 13.245283,11.8867925 12.9245283,11.8867925 Z" id="Shape"></path>
            <path d="M8.30188679,14.7169811 L3.30188679,14.7169811 C2.98113208,14.7169811 2.73584906,14.4716981 2.73584906,14.1509434 C2.73584906,13.8301887 2.98113208,13.5849057 3.30188679,13.5849057 L8.30188679,13.5849057 C8.62264151,13.5849057 8.86792453,13.8301887 8.86792453,14.1509434 C8.86792453,14.4716981 8.62264151,14.7169811 8.30188679,14.7169811 Z" id="Shape"></path>
            <path d="M14.0566038,20 L2.54716981,20 C1.18867925,20 0.0943396226,18.9056604 0.0943396226,17.5471698 L0.0943396226,2.45283019 C0.0943396226,1.09433962 1.18867925,0 2.54716981,0 L14.0566038,0 C15.4150943,0 16.509434,1.09433962 16.509434,2.45283019 L16.509434,17.5471698 C16.509434,18.9056604 15.4150943,20 14.0566038,20 Z M2.54716981,1.13207547 C1.81132075,1.13207547 1.22641509,1.71698113 1.22641509,2.45283019 L1.22641509,17.5471698 C1.22641509,18.2830189 1.81132075,18.8679245 2.54716981,18.8679245 L14.0566038,18.8679245 C14.7924528,18.8679245 15.3773585,18.2830189 15.3773585,17.5471698 L15.3773585,2.45283019 C15.3773585,1.71698113 14.7924528,1.13207547 14.0566038,1.13207547 L2.54716981,1.13207547 Z" id="Shape"></path>
        </g>
    </g>
</svg>