<?xml version="1.0" encoding="UTF-8"?>
<svg width="18px" height="20px" viewBox="0 0 18 20" version="1.1" xmlns="http://www.w3.org/2000/svg" xmlns:xlink="http://www.w3.org/1999/xlink">
    <!-- Generator: Sketch 48.1 (47250) - http://www.bohemiancoding.com/sketch -->
    <title>Group 2</title>
    <desc>Created with Sketch.</desc>
    <defs></defs>
    <g id="Score-(Analysing)" stroke="none" stroke-width="1" fill="none" fill-rule="evenodd" transform="translate(-73.000000, -403.000000)">
        <g id="Group-2" transform="translate(73.000000, 403.000000)" fill="#0057FF" fill-rule="nonzero">
            <path d="M10.5553398,16.0526316 L7.06019417,16.0526316 C6.85048544,16.0526316 6.65825243,15.9298246 6.57087379,15.7192982 C6.48349515,15.5263158 6.53592233,15.2982456 6.69320388,15.1403509 C7.49708738,14.3333333 7.58446602,13.0350877 6.86796117,12.1403509 L6.6407767,11.877193 C6.50097087,11.7017544 6.48349515,11.4561404 6.60582524,11.2631579 C6.72815534,11.0701754 6.95533981,10.9824561 7.16504854,11.0350877 L8.86019417,11.4561404 L10.4504854,11.2105263 C10.6601942,11.1754386 10.8873786,11.2807018 10.992233,11.4736842 C11.0970874,11.6666667 11.0796117,11.9122807 10.9223301,12.0701754 L10.7825243,12.2280702 C10.0485437,13.0701754 10.1009709,14.3508772 10.8873786,15.1403509 C11.0446602,15.2982456 11.0796117,15.5087719 11.0097087,15.7192982 C10.9572816,15.9298246 10.7650485,16.0526316 10.5553398,16.0526316 Z M8.05631068,15 L9.54174757,15 C9.17475728,14.1929825 9.13980583,13.2631579 9.47184466,12.4385965 L8.93009709,12.5263158 C8.86019417,12.5438596 8.79029126,12.5263158 8.72038835,12.5087719 L8.16116505,12.3684211 C8.51067961,13.2280702 8.45825243,14.1929825 8.05631068,15 Z" id="Shape"></path>
            <path d="M9.01747573,12.5438596 C6.32621359,12.5438596 4.12427184,10.3333333 4.12427184,7.63157895 L4.12427184,0.614035088 C4.12427184,0.315789474 4.35145631,0.0877192982 4.64854369,0.0877192982 L13.3864078,0.0877192982 C13.6834951,0.0877192982 13.9106796,0.315789474 13.9106796,0.614035088 L13.9106796,7.63157895 C13.9106796,10.3508772 11.7262136,12.5438596 9.01747573,12.5438596 Z M5.17281553,1.14035088 L5.17281553,7.63157895 C5.17281553,9.75438596 6.90291262,11.4912281 9.01747573,11.4912281 C11.1320388,11.4912281 12.8621359,9.75438596 12.8621359,7.63157895 L12.8621359,1.14035088 L5.17281553,1.14035088 Z" id="Shape"></path>
            <path d="M12.3029126,19.9122807 L5.31262136,19.9122807 C5.01553398,19.9122807 4.78834951,19.6842105 4.78834951,19.3859649 L4.78834951,15.5263158 C4.78834951,15.2280702 5.01553398,15 5.31262136,15 L12.3029126,15 C12.6,15 12.8271845,15.2280702 12.8271845,15.5263158 L12.8271845,19.3684211 C12.8271845,19.6666667 12.5825243,19.9122807 12.3029126,19.9122807 Z M5.8368932,18.8596491 L11.7786408,18.8596491 L11.7786408,16.0526316 L5.8368932,16.0526316 L5.8368932,18.8596491 Z" id="Shape"></path>
            <path d="M13.3864078,8.61403509 C13.2291262,8.61403509 13.0718447,8.54385965 12.9669903,8.40350877 C12.792233,8.1754386 12.8446602,7.84210526 13.0718447,7.66666667 L14.6621359,6.47368421 C15.8854369,5.56140351 16.6543689,4.15789474 16.8116505,2.64912281 L13.3864078,2.64912281 C13.0893204,2.64912281 12.8621359,2.42105263 12.8621359,2.12280702 C12.8621359,1.8245614 13.0893204,1.59649123 13.3864078,1.59649123 L17.3533981,1.59649123 C17.6504854,1.59649123 17.8776699,1.8245614 17.8776699,2.12280702 C17.8776699,4.15789474 16.9165049,6.10526316 15.2912621,7.31578947 L13.7009709,8.50877193 C13.6135922,8.57894737 13.5087379,8.61403509 13.3864078,8.61403509 Z" id="Shape"></path>
            <path d="M4.64854369,8.61403509 C4.52621359,8.61403509 4.4038835,8.57894737 4.29902913,8.49122807 L2.20194175,6.64912281 C0.908737864,5.49122807 0.157281553,3.84210526 0.157281553,2.10526316 C0.157281553,1.80701754 0.384466019,1.57894737 0.681553398,1.57894737 L4.64854369,1.57894737 C4.94563107,1.57894737 5.17281553,1.80701754 5.17281553,2.10526316 C5.17281553,2.40350877 4.94563107,2.63157895 4.64854369,2.63157895 L1.2407767,2.63157895 C1.38058252,3.85964912 1.95728155,5.01754386 2.90097087,5.8245614 L4.99805825,7.66666667 C5.20776699,7.85964912 5.24271845,8.19298246 5.05048544,8.40350877 C4.94563107,8.54385965 4.80582524,8.61403509 4.64854369,8.61403509 Z" id="Shape"></path>
            <polygon id="Shape" points="9 4 9.525 5.35729173 11 5.43020827 9.85 6.34375013 10.25 7.75 9 6.9604168 7.75 7.75 8.15 6.34375013 7 5.43020827 8.475 5.35729173"></polygon>
        </g>
    </g>
</svg>