<?xml version="1.0" encoding="UTF-8"?>
<svg width="16px" height="20px" viewBox="0 0 16 20" version="1.1" xmlns="http://www.w3.org/2000/svg" xmlns:xlink="http://www.w3.org/1999/xlink">
    <!-- Generator: Sketch 48.1 (47250) - http://www.bohemiancoding.com/sketch -->
    <title>Group 10</title>
    <desc>Created with Sketch.</desc>
    <defs></defs>
    <g id="Score-(Analysing)" stroke="none" stroke-width="1" fill="none" fill-rule="evenodd" transform="translate(-74.000000, -535.000000)">
        <g id="Group-10" transform="translate(74.000000, 535.000000)" fill="#7F92A6" fill-rule="nonzero">
            <path d="M12.4736842,5 L3.52631579,5 C3.22807018,5 3,4.78333333 3,4.5 C3,4.21666667 3.22807018,4 3.52631579,4 L12.4736842,4 C12.7719298,4 13,4.21666667 13,4.5 C13,4.78333333 12.7719298,5 12.4736842,5 Z" id="Shape"></path>
            <path d="M12.4736842,8 L3.52631579,8 C3.22807018,8 3,7.78333333 3,7.5 C3,7.21666667 3.22807018,7 3.52631579,7 L12.4736842,7 C12.7719298,7 13,7.21666667 13,7.5 C13,7.78333333 12.7719298,8 12.4736842,8 Z" id="Shape"></path>
            <path d="M7.49152542,10 L3.50847458,10 C3.22033898,10 3,9.78333333 3,9.5 C3,9.21666667 3.22033898,9 3.50847458,9 L7.49152542,9 C7.77966102,9 8,9.21666667 8,9.5 C8,9.78333333 7.77966102,10 7.49152542,10 Z" id="Shape"></path>
            <path d="M13.6091954,19 L13.0574713,19 C12.7448276,19 12.5057471,18.7669811 12.5057471,18.4622642 C12.5057471,18.1575472 12.7448276,17.9245283 13.0574713,17.9245283 L13.6091954,17.9245283 C14.3264368,17.9245283 14.8965517,17.3688679 14.8965517,16.6698113 L14.8965517,2.33018868 C14.8965517,1.63113208 14.3264368,1.0754717 13.6091954,1.0754717 L2.3908046,1.0754717 C1.67356322,1.0754717 1.10344828,1.63113208 1.10344828,2.33018868 L1.10344828,16.6698113 C1.10344828,17.3688679 1.67356322,17.9245283 2.3908046,17.9245283 L8.36781609,17.9245283 C8.68045977,17.9245283 8.91954023,18.1575472 8.91954023,18.4622642 C8.91954023,18.7669811 8.68045977,19 8.36781609,19 L2.3908046,19 C1.06666667,19 0,17.9603774 0,16.6698113 L0,2.33018868 C0,1.03962264 1.06666667,0 2.3908046,0 L13.6091954,0 C14.9333333,0 16,1.03962264 16,2.33018868 L16,16.6698113 C16,17.9603774 14.9333333,19 13.6091954,19 Z" id="Shape"></path>
            <path d="M13,16.28 C13,15.0285714 11.875969,14 10.5,14 C9.12403101,14 8,15.0285714 8,16.28 C8,17.0857143 8.46511628,17.8057143 9.1627907,18.2171429 L9.1627907,20 L10.4806202,19.5028571 L11.7984496,20 L11.7984496,18.2171429 C12.5348837,17.8057143 13,17.0857143 13,16.28 Z M10.5,17.5314286 C9.76356589,17.5314286 9.1627907,16.9657143 9.1627907,16.28 C9.1627907,15.5942857 9.76356589,15.0285714 10.5,15.0285714 C11.2364341,15.0285714 11.8372093,15.5942857 11.8372093,16.28 C11.8372093,16.9657143 11.2364341,17.5314286 10.5,17.5314286 Z" id="Shape"></path>
        </g>
    </g>
</svg>