<?xml version="1.0" encoding="UTF-8"?>
<svg width="20px" height="20px" viewBox="0 0 20 20" version="1.1" xmlns="http://www.w3.org/2000/svg" xmlns:xlink="http://www.w3.org/1999/xlink">
    <!-- Generator: Sketch 48.1 (47250) - http://www.bohemiancoding.com/sketch -->
    <title>Group 16</title>
    <desc>Created with Sketch.</desc>
    <defs></defs>
    <g id="Score-(Analysing)" stroke="none" stroke-width="1" fill="none" fill-rule="evenodd" transform="translate(-72.000000, -623.000000)">
        <g id="Group-16" transform="translate(72.000000, 623.000000)" fill="#7F92A6" fill-rule="nonzero">
            <ellipse id="Oval" cx="10" cy="14.6730769" rx="1" ry="1"></ellipse>
            <path d="M14.5849057,3.36538462 C13.9811321,3.36538462 13.490566,3.86538462 13.490566,4.48076923 C13.490566,4.78846154 13.6037736,5.07692308 13.8113208,5.26923077 L12.0754717,7.94230769 C11.9433962,7.88461538 11.8113208,7.86538462 11.6603774,7.86538462 C11.4339623,7.86538462 11.2264151,7.94230769 11.0566038,8.05769231 L9.64150943,6.61538462 C9.75471698,6.44230769 9.83018868,6.23076923 9.83018868,6 C9.83018868,5.38461538 9.33962264,4.88461538 8.73584906,4.88461538 C8.13207547,4.88461538 7.64150943,5.38461538 7.64150943,6 C7.64150943,6.23076923 7.71698113,6.44230769 7.83018868,6.61538462 L6.41509434,8.05769231 C6.24528302,7.94230769 6.03773585,7.86538462 5.81132075,7.86538462 C5.20754717,7.86538462 4.71698113,8.36538462 4.71698113,8.98076923 C4.71698113,9.59615385 5.20754717,10.0961538 5.81132075,10.0961538 C6.41509434,10.0961538 6.90566038,9.59615385 6.90566038,8.98076923 C6.90566038,8.75 6.83018868,8.53846154 6.71698113,8.36538462 L8.11320755,6.92307692 C8.28301887,7.03846154 8.49056604,7.11538462 8.71698113,7.11538462 C8.94339623,7.11538462 9.1509434,7.03846154 9.32075472,6.92307692 L10.7358491,8.36538462 C10.6226415,8.53846154 10.5471698,8.75 10.5471698,8.98076923 C10.5471698,9.59615385 11.0377358,10.0961538 11.6415094,10.0961538 C12.245283,10.0961538 12.7358491,9.59615385 12.7358491,8.98076923 C12.7358491,8.67307692 12.6226415,8.38461538 12.4150943,8.19230769 L14.1509434,5.53846154 C14.2830189,5.59615385 14.4150943,5.61538462 14.5660377,5.61538462 C15.1698113,5.61538462 15.6603774,5.11538462 15.6603774,4.5 C15.6981132,3.86538462 15.2075472,3.36538462 14.5849057,3.36538462 Z" id="Shape"></path>
            <path d="M12.7169811,20 L7.28301887,20 C7.11320755,20 6.94339623,19.9230769 6.83018868,19.7692308 C6.71698113,19.6346154 6.67924528,19.4423077 6.73584906,19.2692308 L7.13207547,17.6730769 C7.20754717,17.3653846 7.50943396,17.1730769 7.81132075,17.25 C8.11320755,17.3269231 8.30188679,17.6346154 8.22641509,17.9423077 L8,18.8269231 L11.9622642,18.8269231 L11.7358491,17.9423077 C11.6603774,17.6346154 11.8490566,17.3269231 12.1509434,17.25 C12.4528302,17.1730769 12.754717,17.3653846 12.8301887,17.6730769 L13.2264151,19.2692308 C13.2641509,19.4423077 13.2264151,19.6346154 13.1320755,19.7692308 C13.0566038,19.9038462 12.8867925,20 12.7169811,20 Z" id="Shape"></path>
            <path d="M14.7169811,20 L5.28301887,20 C4.96226415,20 4.71698113,19.75 4.71698113,19.4230769 C4.71698113,19.0961538 4.96226415,18.8461538 5.28301887,18.8461538 L14.7169811,18.8461538 C15.0377358,18.8461538 15.2830189,19.0961538 15.2830189,19.4230769 C15.2830189,19.75 15.0377358,20 14.7169811,20 Z" id="Shape"></path>
            <path d="M19.3396226,13.6923077 L0.660377358,13.6923077 C0.339622642,13.6923077 0.0943396226,13.4423077 0.0943396226,13.1153846 C0.0943396226,12.7884615 0.339622642,12.5384615 0.660377358,12.5384615 L19.3396226,12.5384615 C19.6603774,12.5384615 19.9056604,12.7884615 19.9056604,13.1153846 C19.9056604,13.4423077 19.6603774,13.6923077 19.3396226,13.6923077 Z" id="Shape"></path>
            <path d="M18.5660377,16.8461538 L1.43396226,16.8461538 C0.698113208,16.8461538 0.0943396226,16.2307692 0.0943396226,15.4807692 L0.0943396226,1.36538462 C0.0943396226,0.615384615 0.698113208,0 1.43396226,0 L18.5660377,0 C19.3018868,0 19.9056604,0.615384615 19.9056604,1.36538462 L19.9056604,15.4807692 C19.9056604,16.25 19.3018868,16.8461538 18.5660377,16.8461538 Z M1.43396226,1.15384615 C1.32075472,1.15384615 1.22641509,1.25 1.22641509,1.36538462 L1.22641509,15.4807692 C1.22641509,15.5961538 1.32075472,15.6923077 1.43396226,15.6923077 L18.5660377,15.6923077 C18.6792453,15.6923077 18.7735849,15.5961538 18.7735849,15.4807692 L18.7735849,1.36538462 C18.7735849,1.25 18.6792453,1.15384615 18.5660377,1.15384615 L1.43396226,1.15384615 Z" id="Shape"></path>
        </g>
    </g>
</svg>